<svg width="18" height="18" viewBox="0 0 18 18" fill="none" xmlns="http://www.w3.org/2000/svg">
<path d="M5.81088 8.92838C6.48856 10.3139 7.61162 11.4318 9.00018 12.1032C9.10177 12.1513 9.21415 12.1722 9.32625 12.1637C9.43835 12.1552 9.54632 12.1177 9.63951 12.0548L11.6841 10.6915C11.7745 10.6312 11.8785 10.5944 11.9867 10.5844C12.095 10.5745 12.204 10.5917 12.3039 10.6345L16.1288 12.2738C16.2588 12.329 16.3672 12.4249 16.4379 12.5471C16.5086 12.6693 16.5376 12.8112 16.5207 12.9513C16.3998 13.8974 15.9382 14.7669 15.2224 15.3971C14.5066 16.0273 13.5856 16.3749 12.6319 16.375C9.68624 16.375 6.86127 15.2049 4.7784 13.122C2.69553 11.0391 1.52539 8.21415 1.52539 5.26853C1.52544 4.31483 1.87312 3.39384 2.50332 2.67801C3.13352 1.96219 4.00303 1.50061 4.94904 1.37972C5.08919 1.36276 5.23106 1.3918 5.35326 1.46248C5.47547 1.53315 5.5714 1.64163 5.62659 1.77157L7.26729 5.59986C7.30972 5.69888 7.32702 5.80686 7.31762 5.91418C7.30823 6.0215 7.27244 6.12484 7.21344 6.21498L5.85483 8.29089C5.79299 8.38427 5.75644 8.4921 5.74873 8.60383C5.74103 8.71557 5.76244 8.82739 5.81088 8.92838V8.92838Z" stroke="#96AFB1" stroke-width="2" stroke-linecap="round" stroke-linejoin="round"/>
</svg>
